<?xml version="1.0" standalone="no"?>
<!DOCTYPE svg PUBLIC "-//W3C//DTD SVG 20010904//EN"
 "http://www.w3.org/TR/2001/REC-SVG-20010904/DTD/svg10.dtd">
<svg version="1.0" xmlns="http://www.w3.org/2000/svg"
 width="413.000000pt" height="531.000000pt" viewBox="0 0 413.000000 531.000000"
 preserveAspectRatio="xMidYMid meet">

<g transform="translate(0.000000,531.000000) scale(0.100000,-0.100000)"
fill="#000000" stroke="none">
<path d="M1855 5081 c-33 -11 -77 -26 -97 -35 -21 -9 -47 -16 -58 -16 -33 0
-217 -77 -274 -115 -29 -19 -56 -35 -59 -35 -16 0 -131 -96 -177 -148 -71 -80
-160 -240 -160 -288 0 -13 -13 -49 -29 -81 -35 -68 -44 -120 -43 -227 1 -73
24 -166 41 -166 4 0 15 -24 26 -52 10 -29 21 -55 24 -58 19 -16 81 -153 83
-184 1 -20 7 -36 14 -36 7 0 15 -14 19 -31 5 -24 11 -30 26 -26 12 3 20 -2 25
-16 10 -32 5 -146 -7 -166 -9 -14 -8 -22 7 -39 28 -33 34 -27 34 32 0 30 6 85
14 123 16 75 22 113 32 188 4 28 11 56 17 63 5 6 6 12 1 12 -5 0 0 7 10 15 11
8 16 15 12 15 -5 0 -3 7 4 15 16 19 26 19 34 -1 4 -10 -1 -22 -11 -30 -12 -9
-14 -13 -5 -14 7 0 11 -4 8 -8 -11 -19 -16 -72 -6 -72 6 0 8 -11 6 -24 -5 -28
25 -58 45 -45 17 11 39 12 38 2 -7 -46 41 -98 97 -105 30 -4 48 1 79 21 l40
26 -42 3 c-37 3 -44 7 -49 29 -5 20 -2 31 16 45 22 18 23 18 39 -14 9 -19 28
-37 45 -43 25 -8 31 -6 52 18 13 16 24 37 24 49 0 15 4 18 18 13 9 -4 29 -12
45 -17 33 -12 36 -35 5 -41 -13 -2 4 -5 37 -5 33 -1 56 2 50 6 -5 4 -19 18
-30 32 -12 15 -14 20 -4 12 9 -6 18 -9 21 -7 9 10 58 -18 58 -32 0 -9 5 -11
13 -7 8 5 7 2 -2 -9 -8 -10 -11 -20 -8 -23 12 -13 36 42 31 73 -4 24 0 37 17
54 21 21 21 23 4 36 -11 7 -28 11 -39 8 -19 -5 -19 -5 -3 5 14 9 24 8 42 -4
29 -19 35 -20 35 -4 0 6 -3 8 -6 5 -4 -4 -19 2 -33 12 -23 17 -30 18 -58 6
-27 -12 -31 -11 -26 1 3 8 11 14 19 14 8 0 14 5 14 12 0 6 -3 9 -6 5 -3 -3
-14 2 -24 11 -22 18 -50 25 -50 11 0 -5 7 -9 15 -9 12 0 13 -4 4 -18 -11 -18
-13 -18 -33 3 -12 11 -29 32 -38 47 -15 23 -28 28 -103 39 -5 1 -19 8 -30 15
-11 8 -27 14 -37 14 -10 0 -18 5 -18 11 0 7 -11 8 -30 4 -19 -4 -30 -3 -30 4
0 6 -6 11 -14 11 -11 0 -8 11 11 45 13 25 22 46 19 46 -3 1 -10 2 -15 3 -23 3
-21 16 3 27 22 10 24 15 13 27 -8 11 -8 14 0 9 6 -4 18 -1 25 7 8 7 27 20 43
29 17 9 42 27 58 42 15 14 27 21 27 15 0 -19 48 -5 86 25 42 34 81 55 87 48 3
-2 22 3 42 11 40 17 65 23 133 31 23 3 52 14 63 23 20 17 24 18 89 25 45 5 75
14 130 40 50 24 147 30 143 10 -2 -9 4 -10 23 -3 16 7 23 7 19 0 -3 -5 12 -12
35 -16 22 -4 40 -10 40 -13 0 -4 7 -16 15 -27 15 -19 15 -19 9 1 l-6 20 15
-20 c8 -11 17 -29 19 -40 2 -11 9 -19 14 -18 5 1 11 -10 12 -25 1 -14 6 -28
11 -31 8 -6 8 -16 -4 -132 -6 -54 -4 -71 13 -105 11 -21 23 -55 27 -74 4 -19
14 -45 22 -58 18 -30 22 -46 33 -162 5 -52 14 -124 19 -160 6 -36 13 -91 16
-122 11 -100 26 -66 23 50 -3 113 -5 106 48 180 15 19 40 100 88 274 7 26 9
45 3 41 -5 -3 -4 4 2 14 6 11 8 23 4 26 -3 4 1 9 9 12 17 7 14 38 -6 65 -10
13 -9 13 7 1 14 -11 17 -11 17 1 0 8 -5 19 -12 26 -9 9 -8 12 6 12 14 0 16 5
10 23 -4 12 -8 48 -7 80 0 31 -4 57 -9 57 -5 0 -6 5 -3 10 3 6 2 10 -4 10 -7
0 -7 8 -1 24 7 19 5 26 -8 31 -16 6 -15 8 2 21 19 14 19 14 -4 14 -23 0 -23 0
-4 16 19 15 18 15 -3 11 -27 -6 -42 11 -22 24 12 7 11 9 -1 10 -8 1 -22 0 -30
-1 -11 -1 -12 1 -3 10 8 9 7 20 -7 44 -10 17 -21 58 -25 91 -8 71 -35 134 -72
168 -95 86 -160 137 -171 132 -7 -3 -11 -1 -8 4 6 8 -75 45 -104 47 -8 0 -40
13 -70 27 -63 30 -138 49 -142 36 -2 -5 -55 9 -118 32 -143 50 -274 61 -375
30z m1085 -601 c-20 -13 -33 -13 -25 0 3 6 14 10 23 10 15 0 15 -2 2 -10z
m-1130 -254 c0 -2 -8 -10 -17 -17 -16 -13 -17 -12 -4 4 13 16 21 21 21 13z
m-425 -356 c-3 -5 -12 -10 -18 -10 -7 0 -6 4 3 10 19 12 23 12 15 0z m307
-111 c31 -17 20 -26 -37 -32 -30 -3 -80 -17 -111 -31 -69 -32 -94 -34 -87 -6
3 10 15 22 27 26 21 7 21 7 1 15 -11 4 -14 8 -7 10 23 3 27 5 50 17 12 7 28
10 34 6 7 -4 8 -3 4 4 -8 14 97 6 126 -9z m73 -49 c13 -5 -5 -7 -50 -6 -40 0
-84 -5 -103 -13 -18 -7 -35 -11 -38 -8 -3 3 14 12 38 20 47 17 121 20 153 7z
m-40 -40 c3 -5 -1 -10 -9 -10 -9 0 -16 5 -16 10 0 6 4 10 9 10 6 0 13 -4 16
-10z"/>
<path d="M2553 3927 c16 -14 16 -15 -10 -22 -15 -5 -36 -7 -45 -6 -10 1 -18
-3 -18 -9 0 -6 -6 -10 -12 -9 -7 1 -39 1 -71 0 -50 -1 -63 -5 -87 -30 -24 -23
-30 -26 -33 -12 -4 13 -5 13 -6 -2 0 -10 -5 -15 -11 -12 -5 3 -10 -3 -10 -14
0 -25 -16 -36 -23 -17 -6 16 -67 19 -67 4 0 -17 -64 -47 -90 -43 -14 3 -19 2
-12 -1 6 -3 10 -9 8 -13 -3 -4 7 -8 20 -9 14 -1 37 -13 52 -27 15 -14 31 -25
37 -26 5 -1 17 -2 25 -3 8 -2 28 -3 43 -4 l28 -2 -28 -24 c-15 -13 -26 -26
-23 -29 3 -2 34 -7 70 -10 47 -5 60 -3 47 4 -10 6 -31 11 -48 11 -36 1 -27 13
30 39 29 12 41 14 41 6 0 -7 6 -24 14 -39 11 -20 11 -28 3 -32 -7 -2 8 -2 33
1 46 4 80 26 80 50 0 18 14 16 41 -6 19 -15 21 -21 11 -33 -10 -12 -8 -18 6
-30 9 -8 22 -14 27 -13 27 4 65 18 65 24 0 10 -80 77 -87 73 -3 -2 -9 1 -12 7
-4 6 -31 17 -59 23 -29 7 -52 16 -52 21 0 18 123 -25 167 -59 38 -29 52 -28
26 2 -27 30 -83 52 -168 67 l-78 13 91 30 c50 17 88 26 85 21 -4 -6 3 -8 15
-5 14 4 20 2 16 -4 -5 -7 2 -9 19 -6 19 4 24 1 19 -10 -4 -11 -1 -14 12 -9 11
5 15 3 10 -5 -5 -7 -2 -9 8 -5 10 3 20 -3 28 -19 8 -13 17 -24 22 -24 5 0 7
-4 4 -8 -2 -4 -1 -13 3 -20 4 -8 11 -5 19 8 10 16 10 20 0 20 -9 0 -9 3 1 9
17 11 17 62 0 102 -12 30 -123 110 -169 123 -23 6 -24 6 -7 -7z m-333 -167
c-8 -5 -22 -10 -30 -10 -13 0 -13 1 0 10 8 5 22 10 30 10 13 0 13 -1 0 -10z
m-72 -19 c3 -8 -1 -12 -9 -9 -7 2 -15 10 -17 17 -3 8 1 12 9 9 7 -2 15 -10 17
-17z m245 -38 c-7 -2 -21 -2 -30 0 -10 3 -4 5 12 5 17 0 24 -2 18 -5z m62 -33
c3 -5 -1 -10 -9 -10 -9 0 -16 5 -16 10 0 6 4 10 9 10 6 0 13 -4 16 -10z"/>
<path d="M2930 3639 c0 -5 5 -7 10 -4 6 3 10 8 10 11 0 2 -4 4 -10 4 -5 0 -10
-5 -10 -11z"/>
<path d="M1128 3625 c-6 -7 1 -107 8 -114 2 -2 4 8 4 22 0 15 6 36 12 47 10
16 10 22 -3 35 -8 9 -18 13 -21 10z"/>
<path d="M1800 3570 c-9 -6 -10 -10 -3 -10 6 0 15 5 18 10 8 12 4 12 -15 0z"/>
<path d="M2385 3570 c4 -6 11 -8 16 -5 14 9 11 15 -7 15 -8 0 -12 -5 -9 -10z"/>
<path d="M2300 3566 c0 -2 7 -7 16 -10 8 -3 12 -2 9 4 -6 10 -25 14 -25 6z"/>
<path d="M2428 3563 c7 -3 16 -2 19 1 4 3 -2 6 -13 5 -11 0 -14 -3 -6 -6z"/>
<path d="M2503 3563 c9 -2 23 -2 30 0 6 3 -1 5 -18 5 -16 0 -22 -2 -12 -5z"/>
<path d="M1876 3364 c-5 -14 -4 -15 9 -4 17 14 19 20 6 20 -5 0 -12 -7 -15
-16z"/>
<path d="M1174 3335 c-7 -27 10 -55 32 -55 8 0 25 -21 39 -47 20 -39 24 -43
19 -18 -11 55 -15 65 -40 92 -13 14 -24 32 -24 39 0 24 -19 15 -26 -11z"/>
<path d="M1917 3253 c-15 -14 -5 -31 21 -35 15 -3 35 -9 45 -13 27 -11 21 20
-8 39 -26 17 -47 20 -58 9z"/>
<path d="M2150 3250 c-19 -12 -13 -16 38 -24 41 -6 42 -5 32 14 -11 21 -45 26
-70 10z"/>
<path d="M1850 3212 c0 -15 41 -42 65 -42 17 0 17 -2 5 -10 -13 -9 -12 -13 9
-30 28 -24 40 -25 47 -6 10 25 -14 52 -58 66 -24 7 -49 18 -55 23 -9 6 -13 6
-13 -1z"/>
<path d="M2015 3200 c-4 -6 2 -13 12 -17 10 -3 21 -8 24 -9 4 -2 13 4 20 14 7
9 10 14 5 10 -4 -4 -19 -3 -32 2 -14 6 -26 6 -29 0z"/>
<path d="M2225 3190 c-19 -8 -19 -9 2 -9 12 -1 25 4 28 9 7 12 -2 12 -30 0z"/>
<path d="M1262 3155 c0 -16 2 -22 5 -12 2 9 2 23 0 30 -3 6 -5 -1 -5 -18z"/>
<path d="M2210 3146 c0 -9 5 -16 10 -16 6 0 10 4 10 9 0 6 -4 13 -10 16 -5 3
-10 -1 -10 -9z"/>
<path d="M2006 3128 c3 -4 16 -7 29 -6 13 1 22 5 19 8 -9 8 -53 7 -48 -2z"/>
<path d="M2103 3133 c-21 -4 -22 -6 -7 -28 12 -18 13 -28 5 -44 -10 -18 -8
-20 19 -19 34 1 36 4 16 24 -11 10 -12 22 -6 44 5 17 6 29 2 29 -4 -1 -17 -4
-29 -6z"/>
<path d="M1272 3100 c0 -14 2 -19 5 -12 2 6 2 18 0 25 -3 6 -5 1 -5 -13z"/>
<path d="M1972 3100 c-26 -24 -28 -35 -7 -26 13 4 13 2 5 -14 -6 -12 -6 -21
-1 -25 15 -8 31 28 21 45 -5 9 -5 19 2 27 16 20 4 15 -20 -7z"/>
<path d="M2202 3105 c4 -4 3 -14 -3 -21 -7 -8 -7 -14 1 -19 5 -3 10 -5 11 -3
6 27 5 39 -4 45 -7 3 -9 3 -5 -2z"/>
<path d="M2243 3103 c-20 -7 -15 -22 7 -20 20 1 27 12 13 20 -5 2 -14 2 -20 0z"/>
<path d="M1802 3080 c-16 -10 -32 -16 -35 -14 -3 3 -20 -4 -38 -15 -19 -12
-29 -21 -24 -21 6 -1 -3 -8 -20 -17 -24 -14 -27 -18 -12 -21 14 -3 16 -7 6
-18 -9 -11 -8 -14 5 -14 9 0 16 -7 16 -16 0 -14 3 -14 15 -4 13 11 15 8 15
-14 0 -22 4 -26 30 -26 20 0 30 -5 30 -15 0 -22 18 -18 25 5 3 11 11 20 16 20
6 0 7 -6 3 -12 -6 -10 -5 -10 7 -2 8 7 34 15 58 18 52 7 80 26 38 26 -15 0
-27 5 -27 11 0 8 -20 9 -67 4 l-68 -6 30 28 c17 16 33 28 38 26 4 -2 7 0 7 6
0 5 9 13 20 16 11 3 20 11 20 16 0 6 -4 8 -9 4 -5 -3 -12 -1 -16 5 -3 5 -1 10
5 10 18 0 6 22 -17 31 -13 5 -31 1 -51 -11z m28 -45 c-7 -9 -15 -13 -19 -10
-3 3 1 10 9 15 21 14 24 12 10 -5z m-85 -25 c0 -16 -6 -32 -13 -35 -8 -3 -10
0 -6 7 5 7 2 9 -9 5 -27 -10 -25 17 2 35 14 9 26 17 26 17 0 1 0 -12 0 -29z"/>
<path d="M1896 3075 c-3 -8 -1 -15 5 -15 6 0 7 -6 3 -12 -4 -7 1 -6 11 4 9 9
14 21 11 27 -10 15 -23 14 -30 -4z"/>
<path d="M2012 3076 c7 -8 15 -12 17 -11 5 6 -10 25 -20 25 -5 0 -4 -6 3 -14z"/>
<path d="M2304 3079 c-6 -11 66 -93 75 -84 2 3 16 -6 30 -19 14 -13 37 -26 51
-30 14 -3 19 -3 12 0 -10 5 -10 9 0 22 11 13 10 14 -9 4 -16 -9 -24 -9 -29 0
-4 7 -3 8 5 4 6 -4 14 0 17 8 3 9 10 14 14 11 18 -11 18 13 0 32 -10 12 -17
23 -14 26 3 2 -3 7 -12 11 -12 5 -15 2 -10 -9 3 -9 2 -13 -4 -10 -6 3 -10 2
-10 -4 0 -5 12 -14 28 -19 15 -6 20 -11 12 -11 -8 -1 -28 8 -45 19 -27 18 -27
25 0 21 6 -1 1 6 -9 14 -22 17 -40 20 -31 5 9 -14 -8 -12 -25 3 -8 6 -4 0 9
-15 31 -35 16 -36 -24 -2 -16 15 -24 23 -17 20 6 -4 12 -2 12 3 0 14 -17 14
-26 0z m76 -69 c0 -5 -2 -10 -4 -10 -3 0 -8 5 -11 10 -3 6 -1 10 4 10 6 0 11
-4 11 -10z"/>
<path d="M2239 3069 c-11 -7 -8 -9 10 -9 13 0 21 -3 18 -7 -11 -10 13 -32 29
-26 11 4 12 8 3 20 -20 23 -44 32 -60 22z"/>
<path d="M1276 3035 c-3 -8 -1 -15 4 -15 6 0 10 7 10 15 0 8 -2 15 -4 15 -2 0
-6 -7 -10 -15z"/>
<path d="M2221 2949 c-93 -16 -86 -25 24 -34 93 -8 131 -8 163 0 24 6 26 12
13 34 -8 12 -12 12 -25 2 -15 -13 -64 -12 -106 2 -8 2 -39 1 -69 -4z"/>
<path d="M1440 2606 c0 -8 35 -49 77 -92 43 -44 78 -83 78 -87 0 -4 7 -12 15
-17 13 -8 12 -10 -3 -10 -10 0 -15 -5 -12 -10 4 -6 11 -8 16 -4 5 3 8 0 7 -7
-2 -7 4 -13 12 -14 8 0 14 -7 12 -14 -2 -9 3 -11 13 -7 9 3 14 2 11 -3 -6 -9
61 -71 77 -71 7 0 5 -5 -3 -10 -8 -5 -12 -10 -7 -11 4 -1 10 -2 15 -3 17 -3
32 -18 27 -27 -3 -5 0 -6 7 -4 8 3 25 -6 38 -20 13 -14 31 -25 41 -25 10 0 20
-4 23 -8 3 -5 19 -7 36 -4 19 3 30 0 30 -8 0 -10 3 -10 15 0 8 7 21 10 30 7 8
-4 17 -1 21 4 3 6 15 9 25 6 11 -3 19 -2 19 3 0 11 60 19 66 8 3 -4 13 -4 22
1 9 5 22 11 27 13 6 1 9 8 9 15 -1 6 4 9 10 7 11 -4 55 25 166 109 25 19 56
40 69 46 21 12 22 14 7 29 -14 15 -18 14 -39 -6 -13 -13 -38 -24 -55 -26 -16
-3 -38 -9 -49 -14 -29 -16 -94 -31 -88 -21 4 5 3 9 -2 10 -115 9 -121 10 -166
9 -21 -1 -46 5 -55 12 -11 9 -14 9 -9 1 6 -9 0 -9 -23 1 -17 7 -31 16 -30 20
1 11 -24 34 -33 29 -4 -2 -5 -8 -2 -13 6 -10 -24 -22 -37 -14 -5 3 -2 11 8 18
15 11 12 12 -16 8 -22 -3 -31 -1 -26 6 4 7 -1 9 -14 7 -13 -3 -20 1 -20 12 0
9 -6 13 -15 9 -8 -3 -18 2 -23 11 -8 14 -10 14 -15 -1 -10 -25 -25 -19 -20 8
3 16 -4 32 -23 52 -24 26 -25 26 -14 5 11 -22 11 -23 -6 -16 -11 4 -27 7 -36
7 -10 0 -18 3 -18 9 0 14 -17 11 -33 -6 -16 -15 -28 -10 -21 9 7 17 -22 40
-41 32 -8 -3 -15 0 -15 7 0 7 -10 17 -22 22 -13 6 -22 16 -20 23 1 7 -2 12 -8
12 -5 0 -10 -6 -10 -14z m990 -216 c0 -5 -2 -10 -4 -10 -3 0 -8 5 -11 10 -3 6
-1 10 4 10 6 0 11 -4 11 -10z m-503 -216 c-3 -3 -12 -4 -19 -1 -8 3 -5 6 6 6
11 1 17 -2 13 -5z"/>
<path d="M2656 2528 c-4 -18 -2 -87 3 -153 4 -66 8 -165 7 -220 -1 -98 -2
-102 -48 -195 -26 -52 -62 -120 -80 -150 -19 -30 -40 -71 -47 -90 -28 -72 -45
-105 -57 -112 -6 -4 -9 -19 -6 -34 5 -26 4 -27 -32 -20 -23 4 -36 3 -36 -4 0
-10 20 -14 50 -11 18 3 43 36 47 62 4 25 53 99 65 99 5 0 6 5 3 10 -4 6 9 36
28 68 45 74 107 196 111 219 5 23 46 95 61 105 5 4 6 8 1 8 -6 0 -2 6 7 13 9
6 18 23 21 37 2 14 9 45 15 70 14 64 8 204 -11 223 -8 9 -20 28 -27 44 -6 16
-25 37 -41 46 l-29 18 -5 -33z"/>
<path d="M1412 2515 c-13 -13 -21 -29 -17 -34 3 -6 2 -11 -4 -11 -6 0 -8 -7
-4 -17 5 -13 2 -15 -15 -11 -23 6 -31 -7 -9 -15 6 -3 1 -6 -12 -6 -15 -1 -21
-6 -18 -15 3 -7 1 -18 -4 -23 -5 -5 -10 -22 -11 -37 -2 -19 -10 -31 -25 -37
-29 -11 -30 -19 -1 -11 14 3 19 2 14 -7 -4 -6 0 -18 8 -27 22 -22 21 -55 -1
-47 -15 5 -14 3 2 -10 15 -13 16 -16 5 -17 -12 0 -12 -2 -2 -9 8 -4 13 -11 13
-15 -3 -22 2 -88 6 -73 5 18 15 22 26 10 4 -3 1 -13 -6 -21 -9 -13 -9 -14 1
-8 7 4 12 2 12 -4 0 -6 4 -9 9 -6 5 3 21 -29 36 -72 15 -42 41 -112 58 -156
27 -70 32 -76 40 -55 5 13 8 48 8 77 0 28 3 52 8 52 12 0 4 112 -13 171 -8 30
-17 81 -20 113 -3 33 -11 63 -17 67 -10 6 -15 48 -29 272 0 12 -14 6 -38 -18z"/>
<path d="M1563 2453 c4 -3 1 -13 -6 -22 -11 -14 -10 -14 5 -2 16 12 16 31 1
31 -4 0 -3 -3 0 -7z"/>
<path d="M1470 2368 c0 -10 6 -18 13 -18 9 0 8 -3 -2 -9 -7 -5 -12 -14 -10
-20 2 -6 9 -3 16 8 9 15 9 23 -2 37 -13 18 -14 18 -15 2z"/>
<path d="M1290 2238 c0 -4 7 -8 15 -8 8 0 15 4 15 8 0 5 -7 9 -15 9 -8 0 -15
-4 -15 -9z"/>
<path d="M1720 2233 c0 -1 8 -7 18 -12 13 -7 19 -6 19 2 0 7 -9 13 -19 13 -10
0 -18 -1 -18 -3z"/>
<path d="M1790 2156 c0 -2 7 -7 16 -10 8 -3 12 -2 9 4 -6 10 -25 14 -25 6z"/>
<path d="M1970 2146 c0 -2 7 -7 16 -10 8 -3 12 -2 9 4 -6 10 -25 14 -25 6z"/>
<path d="M963 1980 c3 -11 2 -20 -2 -20 -4 0 -13 -12 -20 -27 -16 -35 6 -17
31 25 16 27 16 30 2 36 -13 5 -15 2 -11 -14z"/>
<path d="M914 1835 c10 -8 23 -12 28 -9 13 8 5 14 -23 19 -23 4 -23 4 -5 -10z"/>
<path d="M885 1831 c3 -6 2 -11 -2 -11 -5 0 -9 -9 -10 -20 -1 -11 3 -20 8 -20
6 0 8 4 4 9 -3 5 -1 12 5 16 5 3 10 2 10 -2 0 -5 11 -9 24 -9 14 0 22 4 20 8
-3 5 -10 6 -15 3 -5 -4 -9 -2 -9 2 0 5 -9 14 -21 21 -12 8 -18 9 -14 3z"/>
<path d="M1045 1792 c-3 -10 0 -10 17 -1 18 10 20 9 15 -5 -4 -10 -3 -15 3
-11 6 3 13 -1 16 -9 3 -9 12 -16 19 -16 7 0 18 -7 25 -15 7 -8 17 -12 22 -9 6
4 7 -2 3 -17 -4 -13 -4 -21 0 -17 4 4 18 3 31 -2 24 -10 25 -8 28 29 1 8 12
18 25 23 20 7 22 6 11 -7 -7 -8 -17 -12 -23 -8 -6 3 -7 1 -3 -6 5 -8 13 -7 29
4 12 8 29 15 39 15 26 0 20 47 -7 56 -11 3 -71 7 -132 8 -83 1 -114 -2 -118
-12z m165 -78 c0 -8 -19 -13 -24 -6 -3 5 1 9 9 9 8 0 15 -2 15 -3z"/>
<path d="M1016 1787 c3 -10 9 -15 12 -12 3 3 0 11 -7 18 -10 9 -11 8 -5 -6z"/>
<path d="M885 1760 c-3 -5 -1 -10 4 -10 6 0 11 5 11 10 0 6 -2 10 -4 10 -3 0
-8 -4 -11 -10z"/>
<path d="M2693 1712 c-26 -57 -26 -57 -18 -49 5 4 17 0 27 -10 15 -13 22 -14
45 -4 24 11 70 10 160 -4 17 -3 20 0 16 13 -3 9 -3 14 2 10 6 -6 85 27 85 35
0 2 -27 1 -59 -1 -36 -3 -81 2 -113 11 -138 40 -126 40 -145 -1z"/>
<path d="M1296 1721 c-4 -5 3 -7 14 -4 23 6 26 13 6 13 -8 0 -17 -4 -20 -9z"/>
<path d="M1270 1699 c0 -6 -9 -9 -19 -6 -14 3 -18 1 -14 -9 4 -10 10 -11 24
-3 17 9 27 29 14 29 -3 0 -5 -5 -5 -11z"/>
<path d="M1297 1693 c-11 -10 -8 -33 4 -33 5 0 7 5 4 10 -3 6 3 10 14 10 12 0
21 -5 21 -11 0 -5 -4 -7 -10 -4 -5 3 -7 0 -4 -9 3 -8 12 -12 19 -10 11 5 11
11 3 30 -11 23 -37 32 -51 17z"/>
<path d="M1530 1630 c0 -34 -6 -64 -16 -78 -13 -19 -14 -25 -2 -39 23 -29 -10
-4 -69 51 -30 28 -63 52 -74 52 -11 1 -17 -1 -13 -5 5 -6 9 -7 35 -10 5 0 7
-6 4 -11 -4 -6 -11 -8 -16 -5 -5 4 -9 1 -9 -6 0 -6 8 -9 20 -6 13 3 20 0 20
-10 0 -8 -4 -11 -10 -8 -15 9 -12 -4 5 -21 8 -9 15 -12 15 -8 0 4 12 -8 28
-26 35 -45 116 -129 107 -112 -5 11 19 18 48 13 4 0 7 4 7 9 0 7 -13 8 -36 4
-27 -5 -35 -4 -30 5 4 6 1 11 -9 11 -9 0 -14 4 -11 9 4 5 0 12 -6 14 -8 3 -5
6 6 6 15 1 16 4 6 16 -10 12 -9 20 6 42 21 32 25 117 6 148 -10 17 -11 12 -12
-35z"/>
<path d="M1253 1642 c-10 -6 -10 -12 3 -28 8 -10 13 -13 9 -6 -4 7 0 12 10 12
9 0 13 -4 10 -10 -4 -7 2 -7 18 -1 14 6 28 7 31 4 3 -4 6 -1 6 6 0 8 -7 10
-22 5 -19 -6 -21 -4 -11 7 10 12 8 15 -8 15 -10 0 -19 -4 -19 -8 0 -4 -5 -8
-11 -8 -5 0 -7 5 -4 10 7 12 4 12 -12 2z"/>
<path d="M1215 1629 c-4 -6 -5 -12 -2 -15 2 -3 7 2 10 11 7 17 1 20 -8 4z"/>
<path d="M2531 1591 c-7 -5 -10 -14 -7 -20 4 -6 2 -11 -3 -11 -6 0 -11 5 -11
12 0 6 -2 9 -5 6 -3 -3 -3 -12 1 -21 6 -17 34 -12 34 5 0 6 8 17 18 24 14 11
14 13 2 14 -8 0 -21 -4 -29 -9z"/>
<path d="M2645 1560 c-3 -5 -1 -10 4 -10 6 0 11 5 11 10 0 6 -2 10 -4 10 -3 0
-8 -4 -11 -10z"/>
<path d="M1650 1386 c0 -2 7 -7 16 -10 8 -3 12 -2 9 4 -6 10 -25 14 -25 6z"/>
<path d="M1705 1350 c3 -5 14 -10 23 -10 15 0 15 2 2 10 -20 13 -33 13 -25 0z"/>
<path d="M1750 1330 c0 -12 28 -25 36 -17 3 3 -4 10 -15 17 -15 7 -21 7 -21 0z"/>
<path d="M1793 1293 c9 -2 17 -9 17 -14 0 -6 5 -7 10 -4 16 10 1 25 -23 24
-17 -1 -18 -2 -4 -6z"/>
<path d="M2048 1268 c-10 -10 -18 -21 -18 -24 0 -3 -7 -12 -15 -20 -16 -16
-20 -34 -7 -34 7 0 65 91 60 95 -2 1 -11 -7 -20 -17z"/>
<path d="M1890 1240 c19 -16 43 -37 53 -46 10 -9 21 -14 23 -11 8 8 -32 45
-71 66 l-40 22 35 -31z"/>
<path d="M1970 1150 c-9 -6 -10 -10 -3 -10 6 0 15 5 18 10 8 12 4 12 -15 0z"/>
<path d="M1962 1098 c-21 -27 -22 -55 -3 -79 16 -21 22 -22 45 -11 28 13 35
47 16 83 -12 22 -43 25 -58 7z"/>
<path d="M262 1063 c-6 -2 -10 -9 -6 -14 8 -14 21 -11 21 6 0 8 -1 15 -1 14
-1 0 -7 -3 -14 -6z"/>
<path d="M1897 1031 c-4 -17 -3 -21 5 -13 5 5 8 16 6 23 -3 8 -7 3 -11 -10z"/>
<path d="M245 1000 c3 -5 8 -10 11 -10 2 0 4 5 4 10 0 6 -5 10 -11 10 -5 0 -7
-4 -4 -10z"/>
<path d="M260 980 c-8 -26 -7 -41 2 -32 6 6 8 16 5 24 -3 7 -6 11 -7 8z"/>
<path d="M254 835 c1 -33 16 -33 16 0 0 14 -4 25 -9 25 -5 0 -8 -11 -7 -25z"/>
<path d="M1871 824 c0 -11 3 -14 6 -6 3 7 2 16 -1 19 -3 4 -6 -2 -5 -13z"/>
<path d="M253 786 c3 -8 1 -16 -5 -18 -6 -2 -8 -10 -4 -16 12 -20 22 -13 24
18 1 17 -3 30 -9 30 -6 0 -9 -6 -6 -14z"/>
<path d="M1866 792 c-2 -4 -1 -14 5 -22 7 -12 9 -10 9 8 0 23 -5 28 -14 14z"/>
<path d="M245 720 c3 -5 8 -10 11 -10 2 0 4 5 4 10 0 6 -5 10 -11 10 -5 0 -7
-4 -4 -10z"/>
<path d="M242 688 c-7 -9 -6 -19 4 -32 8 -11 14 -15 14 -9 0 7 -5 15 -11 19
-8 4 -7 9 2 15 7 4 11 11 8 14 -4 3 -11 0 -17 -7z"/>
<path d="M173 669 c-1 -10 2 -19 8 -19 11 0 12 27 1 34 -4 2 -9 -4 -9 -15z"/>
<path d="M90 656 c0 -2 7 -7 16 -10 8 -3 12 -2 9 4 -6 10 -25 14 -25 6z"/>
<path d="M176 625 c4 -8 8 -15 10 -15 2 0 4 7 4 15 0 8 -4 15 -10 15 -5 0 -7
-7 -4 -15z"/>
<path d="M1872 620 c0 -14 2 -19 5 -12 2 6 2 18 0 25 -3 6 -5 1 -5 -13z"/>
<path d="M240 619 c0 -5 5 -7 10 -4 6 3 10 8 10 11 0 2 -4 4 -10 4 -5 0 -10
-5 -10 -11z"/>
<path d="M243 555 c4 -8 2 -17 -3 -20 -5 -3 -6 -15 -1 -28 5 -13 7 -35 4 -49
-3 -14 0 -29 6 -32 8 -5 11 16 11 68 0 49 -4 76 -11 76 -6 0 -9 -7 -6 -15z"/>
<path d="M4055 533 c-10 -27 -17 -69 -10 -61 4 3 8 12 9 20 2 7 6 21 11 31 4
10 5 20 2 23 -2 3 -8 -3 -12 -13z"/>
<path d="M170 499 c0 -5 5 -7 10 -4 6 3 10 8 10 11 0 2 -4 4 -10 4 -5 0 -10
-5 -10 -11z"/>
<path d="M1860 500 c0 -5 5 -10 11 -10 5 0 7 5 4 10 -3 6 -8 10 -11 10 -2 0
-4 -4 -4 -10z"/>
<path d="M176 465 c-3 -8 -1 -15 4 -15 6 0 10 7 10 15 0 8 -2 15 -4 15 -2 0
-6 -7 -10 -15z"/>
<path d="M3940 435 c0 -8 2 -15 4 -15 2 0 6 7 10 15 3 8 1 15 -4 15 -6 0 -10
-7 -10 -15z"/>
<path d="M151 426 c-12 -15 -11 -19 35 -97 21 -37 27 -34 20 9 -3 24 -14 54
-22 68 -9 13 -12 24 -6 24 6 0 13 -5 15 -10 3 -6 4 -5 3 2 -4 19 -31 21 -45 4z
m19 -16 c0 -5 -2 -10 -4 -10 -3 0 -8 5 -11 10 -3 6 -1 10 4 10 6 0 11 -4 11
-10z"/>
<path d="M231 401 c-9 -6 -10 -11 -2 -15 6 -4 11 -1 11 6 0 9 3 9 10 -2 8 -13
10 -12 10 3 0 19 -8 21 -29 8z"/>
<path d="M3980 379 c0 -5 5 -7 10 -4 6 3 10 8 10 11 0 2 -4 4 -10 4 -5 0 -10
-5 -10 -11z"/>
<path d="M247 356 c-4 -10 -1 -13 9 -9 15 6 19 23 5 23 -5 0 -11 -7 -14 -14z"/>
<path d="M1862 325 c0 -16 2 -22 5 -12 2 9 2 23 0 30 -3 6 -5 -1 -5 -18z"/>
<path d="M251 321 c-8 -14 -7 -20 4 -25 11 -4 15 2 15 19 0 30 -6 32 -19 6z"/>
<path d="M3820 321 c0 -6 4 -13 10 -16 6 -3 7 1 4 9 -7 18 -14 21 -14 7z"/>
<path d="M3935 312 c-6 -4 -34 -48 -62 -97 -44 -80 -50 -97 -52 -153 l-1 -62
34 0 c19 0 38 5 41 10 4 6 3 10 -2 9 -4 -1 -21 0 -38 1 l-30 2 26 10 c27 11
57 48 39 48 -5 0 -10 -5 -10 -10 0 -6 -8 -5 -20 2 -13 8 -16 15 -8 19 7 4 16
5 22 2 5 -3 6 -1 2 5 -4 7 -2 12 4 12 6 0 8 5 5 10 -4 6 -11 7 -17 4 -7 -4 -8
-2 -4 4 4 7 15 12 24 12 15 1 15 2 -2 11 -13 8 -15 14 -7 19 7 4 13 17 14 28
1 12 5 22 9 22 4 0 7 3 6 8 -3 13 14 62 22 62 4 0 10 7 14 15 6 17 5 18 -9 7z"/>
<path d="M3836 246 c-23 -33 -34 -59 -30 -70 9 -22 27 -20 19 3 -3 12 4 29 22
49 23 24 42 72 30 72 -2 0 -20 -24 -41 -54z"/>
<path d="M165 281 c-3 -5 4 -12 15 -16 11 -3 20 -14 20 -23 0 -13 2 -14 13 -3
10 11 9 14 -1 18 -7 3 -19 11 -27 19 -8 8 -16 10 -20 5z"/>
<path d="M256 267 c4 -12 -35 -39 -61 -42 -14 -1 -7 -53 12 -81 8 -13 13 -31
9 -39 -3 -8 -1 -15 5 -15 6 0 7 -4 4 -10 -3 -5 -1 -10 4 -10 6 0 10 -3 10 -8
-1 -4 0 -9 1 -12 1 -3 3 -13 5 -22 4 -20 -10 -16 -99 31 -33 17 -62 28 -65 24
-3 -3 0 -8 7 -10 7 -3 19 -11 27 -20 8 -8 15 -12 15 -9 0 3 21 -6 46 -19 53
-28 91 -32 120 -10 18 14 18 14 -3 10 -13 -2 -25 0 -28 6 -4 5 1 9 9 9 13 0
15 12 13 65 -4 68 -12 89 -27 65 -12 -20 -22 -8 -23 31 -1 18 3 34 11 36 7 3
12 1 11 -4 -1 -4 -1 -15 0 -23 1 -11 4 -10 13 4 8 14 8 21 1 23 -6 2 -9 13 -6
23 3 11 0 20 -6 20 -5 0 -8 -6 -5 -13z m17 -131 c3 -8 -1 -22 -8 -33 -13 -17
-14 -17 -15 0 0 9 5 17 11 17 8 0 8 5 -1 15 -7 9 -8 15 -2 15 5 0 12 -6 15
-14z"/>
<path d="M1862 255 c0 -16 2 -22 5 -12 2 9 2 23 0 30 -3 6 -5 -1 -5 -18z"/>
<path d="M1968 199 c-10 -5 -18 -6 -18 -2 -1 18 -20 -24 -20 -43 0 -24 29 -54
51 -54 9 0 25 18 37 39 l22 40 -22 15 c-26 19 -27 19 -50 5z"/>
<path d="M498 193 c6 -2 18 -2 25 0 6 3 1 5 -13 5 -14 0 -19 -2 -12 -5z"/>
<path d="M1856 184 c-3 -9 -4 -20 0 -25 3 -5 1 -9 -4 -9 -11 0 -3 -58 9 -66 6
-3 9 20 7 55 -1 34 -3 61 -4 61 -1 0 -5 -7 -8 -16z"/>
<path d="M145 140 c3 -5 8 -10 11 -10 2 0 4 5 4 10 0 6 -5 10 -11 10 -5 0 -7
-4 -4 -10z"/>
<path d="M480 81 c-23 -7 -22 -8 13 -12 26 -4 37 -1 37 8 0 14 -11 15 -50 4z"/>
<path d="M1864 46 c-3 -8 -4 -23 -2 -33 3 -11 6 -6 9 15 6 34 2 42 -7 18z"/>
<path d="M480 33 c0 -15 2 -16 10 -3 8 13 12 13 32 1 21 -13 22 -13 9 2 -18
23 -51 22 -51 0z"/>
</g>
</svg>
